HIERARCHY
ROOT hip
{
  OFFSET 0 0 0
  CHANNELS 6 Xposition Yposition Zposition Zrotation Yrotation Xrotation
  JOINT abdomen
  {
    OFFSET 0 20.6881 -0.73152
    CHANNELS 3 Zrotation Xrotation Yrotation
    JOINT chest
    {
      OFFSET 0 11.7043 -0.48768
      CHANNELS 3 Zrotation Xrotation Yrotation
      JOINT neck
      {
        OFFSET 0 22.1894 -2.19456
        CHANNELS 3 Zrotation Xrotation Yrotation
        JOINT head
        {
          OFFSET -0.24384 7.07133 1.2192
          CHANNELS 3 Zrotation Xrotation Yrotation
          JOINT leftEye
          {
            OFFSET 4.14528 8.04674 8.04672
            CHANNELS 3 Zrotation Xrotation Yrotation
            End Site
            {
              OFFSET 1 0 0
            }
          }
          JOINT rightEye
          {
            OFFSET -3.6576 8.04674 8.04672
            CHANNELS 3 Zrotation Xrotation Yrotation
            End Site
            {
              OFFSET 1 0 0
            }
          }
        }
      }
      JOINT rCollar
      {
        OFFSET -2.68224 19.2634 -4.8768
        CHANNELS 3 Zrotation Xrotation Yrotation
        JOINT rShldr
        {
          OFFSET -8.77824 -1.95073 1.46304
          CHANNELS 3 Zrotation Xrotation Yrotation
          JOINT rForeArm
          {
            OFFSET -28.1742 -1.7115 0.48768
            CHANNELS 3 Zrotation Xrotation Yrotation
            JOINT rHand
            {
              OFFSET -22.5879 0.773209 7.07136
              CHANNELS 3 Zrotation Xrotation Yrotation
              JOINT rThumb1
              {
                OFFSET -1.2192 -0.487915 3.41376
                CHANNELS 3 Zrotation Xrotation Yrotation
                JOINT rThumb2
                {
                  OFFSET -3.37035 -0.52449 3.41376
                  CHANNELS 3 Zrotation Xrotation Yrotation
                  End Site
                  {
                    OFFSET -1.78271 -1.18214 1.43049
                  }
                }
              }
              JOINT rIndex1
              {
                OFFSET -7.75947 0.938293 5.60832
                CHANNELS 3 Zrotation Xrotation Yrotation
                JOINT rIndex2
                {
                  OFFSET -2.54057 -0.884171 1.56538
                  CHANNELS 3 Zrotation Xrotation Yrotation
                  End Site
                  {
                    OFFSET -1.62519 -0.234802 1.16502
                  }
                }
              }
              JOINT rMid1
              {
                OFFSET -8.24714 1.18213 3.41376
                CHANNELS 3 Zrotation Xrotation Yrotation
                JOINT rMid2
                {
                  OFFSET -3.10165 -0.590103 1.0647
                  CHANNELS 3 Zrotation Xrotation Yrotation
                  End Site
                  {
                    OFFSET -2.48547 -0.328903 0.83742
                  }
                }
              }
              JOINT rRing1
              {
                OFFSET -8.82822 0.546677 1.51678
                CHANNELS 3 Zrotation Xrotation Yrotation
                JOINT rRing2
                {
                  OFFSET -2.60934 -0.819778 -0.0198488
                  CHANNELS 3 Zrotation Xrotation Yrotation
                  End Site
                  {
                    OFFSET -2.33842 -0.294052 0.168128
                  }
                }
              }
              JOINT rPinky1
              {
                OFFSET -8.27202 -0.0477905 -0.4584
                CHANNELS 3 Zrotation Xrotation Yrotation
                JOINT rPinky2
                {
                  OFFSET -1.82734 -0.647385 -0.700984
                  CHANNELS 3 Zrotation Xrotation Yrotation
                  End Site
                  {
                    OFFSET -1.69225 -0.51767 -0.607171
                  }
                }
              }
            }
          }
        }
      }
      JOINT lCollar
      {
        OFFSET 2.68224 19.2634 -4.8768
        CHANNELS 3 Zrotation Xrotation Yrotation
        JOINT lShldr
        {
          OFFSET 8.77824 -1.95073 1.46304
          CHANNELS 3 Zrotation Xrotation Yrotation
          JOINT lForeArm
          {
            OFFSET 28.1742 -1.7115 0.48768
            CHANNELS 3 Zrotation Xrotation Yrotation
            JOINT lHand
            {
              OFFSET 22.5879 0.773209 7.07136
              CHANNELS 3 Zrotation Xrotation Yrotation
              JOINT lThumb1
              {
                OFFSET 1.2192 -0.487915 3.41376
                CHANNELS 3 Zrotation Xrotation Yrotation
                JOINT lThumb2
                {
                  OFFSET 3.37035 -0.52449 3.41376
                  CHANNELS 3 Zrotation Xrotation Yrotation
                  End Site
                  {
                    OFFSET 1.78271 -1.18214 1.43049
                  }
                }
              }
              JOINT lIndex1
              {
                OFFSET 7.75947 0.938293 5.60832
                CHANNELS 3 Zrotation Xrotation Yrotation
                JOINT lIndex2
                {
                  OFFSET 2.54057 -0.884171 1.56538
                  CHANNELS 3 Zrotation Xrotation Yrotation
                  End Site
                  {
                    OFFSET 1.62519 -0.234802 1.16502
                  }
                }
              }
              JOINT lMid1
              {
                OFFSET 8.24714 1.18213 3.41376
                CHANNELS 3 Zrotation Xrotation Yrotation
                JOINT lMid2
                {
                  OFFSET 3.10165 -0.590103 1.0647
                  CHANNELS 3 Zrotation Xrotation Yrotation
                  End Site
                  {
                    OFFSET 2.48547 -0.328903 0.83742
                  }
                }
              }
              JOINT lRing1
              {
                OFFSET 8.82822 0.546677 1.51678
                CHANNELS 3 Zrotation Xrotation Yrotation
                JOINT lRing2
                {
                  OFFSET 2.60934 -0.819778 -0.0198488
                  CHANNELS 3 Zrotation Xrotation Yrotation
                  End Site
                  {
                    OFFSET 2.33842 -0.294052 0.168128
                  }
                }
              }
              JOINT lPinky1
              {
                OFFSET 8.27202 -0.0477905 -0.4584
                CHANNELS 3 Zrotation Xrotation Yrotation
                JOINT lPinky2
                {
                  OFFSET 1.82734 -0.647385 -0.700984
                  CHANNELS 3 Zrotation Xrotation Yrotation
                  End Site
                  {
                    OFFSET 1.69225 -0.51767 -0.607171
                  }
                }
              }
            }
          }
        }
      }
    }
  }
  JOINT rButtock
  {
    OFFSET -8.77824 4.35084 1.2192
    CHANNELS 3 Zrotation Xrotation Yrotation
    JOINT rThigh
    {
      OFFSET 0 -1.70687 -2.19456
      CHANNELS 3 Zrotation Xrotation Yrotation
      JOINT rShin
      {
        OFFSET 0 -36.8199 0.73152
        CHANNELS 3 Zrotation Xrotation Yrotation
        JOINT rFoot
        {
          OFFSET 0.73152 -45.1104 -5.12064
          CHANNELS 3 Zrotation Xrotation Yrotation
          End Site
          {
            OFFSET -1.1221 -3.69964 12.103
          }
        }
      }
    }
  }
  JOINT lButtock
  {
    OFFSET 8.77824 4.35084 1.2192
    CHANNELS 3 Zrotation Xrotation Yrotation
    JOINT lThigh
    {
      OFFSET 0 -1.70687 -2.19456
      CHANNELS 3 Zrotation Xrotation Yrotation
      JOINT lShin
      {
        OFFSET 0 -36.8199 0.73152
        CHANNELS 3 Zrotation Xrotation Yrotation
        JOINT lFoot
        {
          OFFSET -0.73152 -45.1104 -5.12064
          CHANNELS 3 Zrotation Xrotation Yrotation
          End Site
          {
            OFFSET 1.1221 -3.69964 12.103
          }
        }
      }
    }
  }
}
MOTION
Frames:	4
Frame Time:	0.00833333
15.9912 67.4083 71.5456 170.075 -6.2153 -139.594 -0.388175 -18.5327 -14.3689 0.910723 12.156 -3.74387 -0.313053 14.889 -0.883568 0.613346 -12.0788 -0.203754 -0.0 0.0 0.0 -0.0 0.0 0.0 2.83065e-13 -1.49468e-13 2.87741e-14 83.6039 17.8761 -8.63361 -17.8272 -10.5021 33.6337 -0.0663025 -7.32719 -1.03548 -2.87422e-09 -3.38502e-09 4.5716e-10 -4.96221e-09 -5.84816e-09 7.78962e-10 -2.87421e-09 -3.38502e-09 4.57151e-10 7.73091 5.47488 0.417314 -2.87422e-09 -3.38502e-09 4.5716e-10 2.90554 0.965183 0.102902 -2.87421e-09 -3.38502e-09 4.57161e-10 10.2786 0.731801 0.0259123 -2.87422e-09 -3.38502e-09 4.5717e-10 2.22167 -0.733487 -0.20892 2.83093e-13 -1.49504e-13 2.84759e-14 -57.8378 32.7195 -11.9171 22.1133 -15.9283 -44.0967 0.0385182 -5.59286 0.788556 -2.47962e-09 -4.89672e-10 1.69155e-09 -4.29526e-09 -8.65795e-10 2.91155e-09 -2.47962e-09 -4.89669e-10 1.69157e-09 -7.73091 5.47488 -0.417314 -2.47962e-09 -4.89671e-10 1.69156e-09 -2.90554 0.965183 -0.102902 -2.47963e-09 -4.89674e-10 1.69155e-09 -10.2786 0.731801 -0.0259123 -2.47961e-09 -4.89676e-10 1.69154e-09 -2.22167 -0.733487 0.20892 -2.03217e-16 0.0 -3.88251e-19 -22.1759 -63.8531 -3.26208 -0.268697 20.4879 -1.09995 2.21747 -3.6236 -9.04308 2.03217e-16 0.0 3.88251e-19 6.5871 -20.6821 -10.4768 0.672474 60.3659 -3.0301 -0.481761 -12.4943 0.677952
16.1685 67.4211 71.2605 170.226 -6.1141 -139.866 -0.318211 -18.3337 -14.0554 0.947663 12.2253 -3.67471 -0.222881 14.956 -0.93193 0.543376 -11.9984 -0.283309 -0.0 0.0 0.0 -0.0 0.0 0.0 1.51254e-13 -2.79575e-13 1.5341e-13 83.5461 18.0195 -8.45307 -17.9233 -10.6047 33.8479 -0.0704661 -7.54329 -1.06639 -1.61681e-09 -2.95479e-09 1.91e-09 -2.79596e-09 -5.09843e-09 3.30183e-09 -1.6168e-09 -2.95479e-09 1.90999e-09 7.73091 5.47488 0.417314 -1.61681e-09 -2.95479e-09 1.91e-09 2.90554 0.965183 0.102902 -1.6168e-09 -2.95479e-09 1.91e-09 10.2786 0.731801 0.0259123 -1.61681e-09 -2.95479e-09 1.91001e-09 2.22167 -0.733487 -0.20892 1.51246e-13 -2.79606e-13 1.53113e-13 -57.9704 33.2865 -11.8096 22.117 -15.9337 -44.1079 0.0351964 -5.33691 0.752264 -2.85707e-09 4.56981e-10 2.88905e-09 -4.95747e-09 7.60906e-10 4.97985e-09 -2.85707e-09 4.5698e-10 2.88906e-09 -7.73091 5.47488 -0.417314 -2.85707e-09 4.5698e-10 2.88905e-09 -2.90554 0.965183 -0.102902 -2.85708e-09 4.56978e-10 2.88905e-09 -10.2786 0.731801 -0.0259123 -2.85706e-09 4.56976e-10 2.88904e-09 -2.22167 -0.733487 0.20892 -2.03217e-16 0.0 -3.88251e-19 -20.8825 -63.6124 -2.2613 -0.265365 20.4262 -1.11381 2.13031 -3.71131 -8.82842 2.03217e-16 0.0 3.88251e-19 6.06473 -21.7466 -10.2207 0.790255 62.1462 -3.08397 -0.430733 -12.9604 0.888282
16.3528 67.4303 70.9583 170.401 -5.9494 -140.151 -0.232758 -18.1187 -13.7024 0.937581 12.328 -3.59225 -0.103587 14.8842 -1.03492 0.503503 -11.7145 -0.456808 -0.0 0.0 0.0 -0.0 0.0 0.0 -6.83734e-14 -4.27377e-13 3.01559e-13 83.5331 18.0623 -8.25465 -18.0235 -10.7123 34.072 -0.0734277 -7.6991 -1.08868 4.54987e-10 -1.76805e-09 3.62309e-09 7.74545e-10 -3.03949e-09 6.27981e-09 4.5499e-10 -1.76805e-09 3.62308e-09 7.73091 5.47488 0.417314 4.54986e-10 -1.76805e-09 3.62309e-09 2.90554 0.965183 0.102902 4.54994e-10 -1.76805e-09 3.62309e-09 10.2786 0.731801 0.0259123 4.54982e-10 -1.76805e-09 3.6231e-09 2.22167 -0.733487 -0.20892 -6.84351e-14 -4.27398e-13 3.01292e-13 -58.0252 33.8299 -11.7557 22.1036 -15.9132 -44.0727 0.0323507 -5.10629 0.719588 -2.77472e-09 1.93784e-09 4.0707e-09 -4.82509e-09 3.31323e-09 7.02286e-09 -2.77473e-09 1.93783e-09 4.07072e-09 -7.73091 5.47488 -0.417314 -2.77472e-09 1.93784e-09 4.0707e-09 -2.90554 0.965183 -0.102902 -2.77473e-09 1.93783e-09 4.0707e-09 -10.2786 0.731801 -0.0259123 -2.77472e-09 1.93783e-09 4.07069e-09 -2.22167 -0.733487 0.20892 -2.03217e-16 0.0 -3.88251e-19 -19.5887 -63.3179 -1.32086 -0.260959 20.3839 -1.12053 2.03637 -3.80009 -8.57665 2.03217e-16 0.0 3.88251e-19 5.50789 -22.8267 -9.96973 0.918207 63.8244 -3.13498 -0.382959 -13.4247 1.0619
16.5361 67.4434 70.6339 170.567 -5.7353 -140.485 -0.154917 -17.9052 -13.3546 0.929604 12.4206 -3.51297 -0.00551843 14.7879 -1.14346 0.483786 -11.3776 -0.63426 -0.0 0.0 0.0 -0.0 0.0 0.0 -2.80824e-13 -5.47548e-13 4.16659e-13 83.5181 18.079 -8.06559 -18.1183 -10.8148 34.2854 -0.075915 -7.83261 -1.10779 2.50982e-09 -5.38648e-10 5.03748e-09 4.31684e-09 -9.08068e-10 8.74035e-09 2.50982e-09 -5.38649e-10 5.03748e-09 7.73091 5.47488 0.417314 2.50982e-09 -5.38648e-10 5.03748e-09 2.90554 0.965183 0.102902 2.50983e-09 -5.38648e-10 5.03749e-09 10.2786 0.731801 0.0259123 2.50982e-09 -5.38645e-10 5.0375e-09 2.22167 -0.733487 -0.20892 -2.80935e-13 -5.47557e-13 4.16431e-13 -58.1177 34.3333 -11.6735 22.072 -15.8654 -43.9868 0.0292705 -4.85831 0.684466 -2.44541e-09 3.38297e-09 4.98265e-09 -4.26357e-09 5.80678e-09 8.60074e-09 -2.44542e-09 3.38296e-09 4.98267e-09 -7.73091 5.47488 -0.417314 -2.44542e-09 3.38296e-09 4.98265e-09 -2.90554 0.965183 -0.102902 -2.44543e-09 3.38296e-09 4.98265e-09 -10.2786 0.731801 -0.0259123 -2.44541e-09 3.38296e-09 4.98264e-09 -2.22167 -0.733487 0.20892 -2.03217e-16 0.0 -3.88251e-19 -18.3107 -63.0205 -0.409276 -0.255558 20.3978 -1.11714 1.93002 -3.93649 -8.32712 2.03217e-16 0.0 3.88251e-19 4.93194 -23.9336 -9.72711 1.05399 65.3849 -3.1869 -0.337743 -13.8555 1.1841
